<svg xmlns="http://www.w3.org/2000/svg" width="1440" height="1024" viewBox="0 0 1440 1024"><g fill="none" fill-rule="evenodd"><rect width="1440" height="1024" fill="#0B292F"/><path fill="#4A7F89" fill-rule="nonzero" d="M116.507599 1146C51.6451116 1144.19691 0 1091.09231 0 1026.1999 0 961.307491 51.6451116 908.202891 116.507599 906.399802 358.799214 906.093989 555.153451 709.76641 555.51032 467.456682 555.510318 424.672759 578.333555 385.138784 615.382739 363.746822 652.431922 342.35486 698.078398 342.35486 735.127581 363.746822 772.176765 385.138784 795 424.672759 795 467.456682 794.541109 842.015551 491.038362 1145.54107 116.507599 1146L116.507599 1146ZM673.837445 239.204378C625.475339 239.204378 581.875151 210.035092 563.367735 165.297493 544.86032 120.559893 555.090431 69.0646542 589.287747 34.8241088 617.588419 7.00303033 657.675714-5.22499041 696.661244 2.07145361 704.289296 3.73876133 711.768206 6.02861081 719.023022 8.91805383 726.278569 11.9110477 733.213331 15.6308256 739.721527 20.0206488 746.376778 24.3015585 752.570238 29.2626312 758.202336 34.8241088 780.689032 57.2244298 793.331625 87.6748831 793.331625 119.435135 793.331625 151.195386 780.689032 181.645839 758.202336 204.04616 752.578206 209.725364 746.385318 214.809994 739.721527 219.219707 733.184534 223.484045 726.253129 227.109073 719.023022 230.044737 711.90129 233.279255 704.381372 235.550547 696.661244 236.798815 689.061281 238.376396 681.321766 239.18233 673.560233 239.204378L673.837445 239.204378Z" opacity=".166" transform="scale(1 -1) rotate(-75 386.19 -340.51)"/><path fill="#4A7F89" fill-rule="nonzero" d="M116.507599 1146C51.6451116 1144.19691 0 1091.09231 0 1026.1999 0 961.307491 51.6451116 908.202891 116.507599 906.399802 358.799214 906.093989 555.153451 709.76641 555.51032 467.456682 555.510318 424.672759 578.333555 385.138784 615.382739 363.746822 652.431922 342.35486 698.078398 342.35486 735.127581 363.746822 772.176765 385.138784 795 424.672759 795 467.456682 794.541109 842.015551 491.038362 1145.54107 116.507599 1146L116.507599 1146ZM673.837445 239.204378C625.475339 239.204378 581.875151 210.035092 563.367735 165.297493 544.86032 120.559893 555.090431 69.0646542 589.287747 34.8241088 617.588419 7.00303033 657.675714-5.22499041 696.661244 2.07145361 704.289296 3.73876133 711.768206 6.02861081 719.023022 8.91805383 726.278569 11.9110477 733.213331 15.6308256 739.721527 20.0206488 746.376778 24.3015585 752.570238 29.2626312 758.202336 34.8241088 780.689032 57.2244298 793.331625 87.6748831 793.331625 119.435135 793.331625 151.195386 780.689032 181.645839 758.202336 204.04616 752.578206 209.725364 746.385318 214.809994 739.721527 219.219707 733.184534 223.484045 726.253129 227.109073 719.023022 230.044737 711.90129 233.279255 704.381372 235.550547 696.661244 236.798815 689.061281 238.376396 681.321766 239.18233 673.560233 239.204378L673.837445 239.204378Z" opacity=".166" transform="scale(1 -1) rotate(26 2900.227 -999.391)"/></g></svg>