<svg xmlns="http://www.w3.org/2000/svg" xmlns:xlink="http://www.w3.org/1999/xlink" width="75" height="75" viewBox="0 0 75 75"><defs><polygon id="a" points="0 0 31.268 0 31.268 38.096 0 38.096"/></defs><g fill="none" fill-rule="evenodd"><rect width="75" height="75" fill="#FFF" rx="12"/><g transform="translate(21 12)"><mask id="b" fill="#fff"><use xlink:href="#a"/></mask><path fill="#2675A6" d="M14.6472594,37.0777138 C15.2904055,37.7296698 16.1501369,38.0911906 17.0678276,38.0957604 L17.0856222,38.0957604 C17.9972119,38.0957604 18.8538927,37.7433791 19.5005978,37.1010704 C20.1539123,36.4521609 20.5138707,35.5884715 20.5138707,34.6699447 C20.5138707,33.7580187 20.1574712,32.9004223 19.5112745,32.2560826 L10.0598225,22.7895187 C8.70184358,21.4302615 7.74042907,19.7937707 7.27827899,18.0567445 C7.09524926,17.3661992 7.00170073,16.7233828 7.00170073,16.1465743 C7.00170073,11.2442103 10.9968331,7.25631113 15.907114,7.25631113 C19.7527721,7.25631113 23.1494989,9.70165396 24.3590204,13.3422495 C24.5934001,14.0454887 25.038264,14.6476848 25.6478547,15.0863842 C26.2528697,15.5194983 26.967194,15.7479875 27.7135486,15.7479875 C28.8534171,15.7479875 29.8966866,15.2219545 30.5754219,14.3049509 C31.2444972,13.4016567 31.4402373,12.2719042 31.1128175,11.20359 C29.065935,4.56673867 22.8383483,0 15.8954205,0 C15.7866195,0 15.67731,0.00101550782 15.568509,0.00253876955 C7.1603265,0.17923713 0.326708072,6.8886973 0.0114901999,15.2757764 C0.00386396102,15.4722771 0.000305049554,15.6677624 -0.000222531498,15.8617244 C-0.00681277337,19.9217247 1.69638057,23.9776629 4.67264739,26.9896591 L14.6472594,37.0777138 Z" mask="url(#b)"/><path fill="#1A5274" d="M18.352493,12.9222862 C17.7098552,12.2703302 16.8501239,11.9088094 15.9324332,11.9042396 L15.9141302,11.9042396 C15.0025404,11.9042396 14.1458596,12.2566209 13.499663,12.8989296 C12.8463485,13.5473313 12.48639,14.4105129 12.48639,15.3295475 C12.48639,16.2414735 12.8422812,17.0985621 13.4884778,17.7439174 L22.9404382,27.2099735 C24.2984172,28.5697385 25.2598317,30.2067371 25.7214733,31.9432555 C25.9050115,32.6343085 25.9980516,33.277125 25.9980516,33.8529179 C25.9980516,38.7557897 22.0034277,42.7436889 17.0926383,42.7436889 C13.2469803,42.7436889 9.85076188,40.298346 8.6412404,36.6577505 C8.40635224,35.9540036 7.9609799,35.3512997 7.35240604,34.9131081 C6.74739109,34.4805017 6.0325583,34.2520125 5.28620372,34.2520125 C4.14633522,34.2520125 3.10357416,34.7775378 2.42433049,35.6940336 C1.75576355,36.5978355 1.559515,37.727588 1.88744327,38.79641 C3.93381737,45.4332613 10.1619124,50 17.1048403,50 C17.2131329,50 17.3224423,49.9989845 17.4312433,49.9969535 C25.8394258,49.8207629 32.6730443,43.1113027 32.9882621,34.7227004 C32.9958884,34.5277229 32.9994473,34.3327454 33,34.1377679 C33.0070735,30.0782753 31.3033718,26.0223371 28.327105,23.0098332 L18.352493,12.9222862 Z"/></g></g></svg>