<svg xmlns="http://www.w3.org/2000/svg" width="560" height="338" viewBox="0 0 560 338"><g fill="none" fill-rule="evenodd"><g fill="#FFF" fill-rule="nonzero" transform="translate(166.704 127.712)"><path d="M46.872,65.596 C46.872,72.664 39.184,75.64 31.744,75.64 C18.6,75.64 11.16,62.62 11.16,62.62 L0,72.044 C0,72.044 10.044,89.776 31.744,89.776 C48.112,89.776 62,81.344 62,65.596 C62,49.848 50.964,43.896 37.696,38.936 C25.792,34.472 18.972,32.116 18.972,24.552 C18.972,18.724 24.8,14.136 32.24,14.136 C43.028,14.136 50.22,23.932 50.22,23.932 L60.512,13.764 C60.512,13.764 50.344,0 32.24,0 C14.756,0 3.844,12.276 3.844,24.552 C3.844,40.672 18.228,47.616 31,52.08 C41.292,55.676 46.872,58.28 46.872,65.596 Z"/><polygon points="189.472 1.488 173.972 1.488 155.124 53.568 135.78 1.488 123.504 1.488 103.788 53.568 85.436 1.488 68.572 1.488 102.796 91.264 129.208 26.164 155.248 91.264"/><polygon points="200.88 88.288 215.76 88.288 215.76 1.488 200.88 1.488"/><polygon points="232.624 1.488 232.624 15.624 273.792 15.624 228.408 88.288 296.484 88.288 296.484 74.152 253.828 74.152 298.964 1.488"/><polygon points="311.612 88.288 326.492 88.288 326.492 1.488 311.612 1.488"/></g><g fill="#FFF" stroke="#FFF" transform="translate(54.538 150)"><circle cx="7.269" cy="7.269" r="6.769"/><circle cx="68.654" cy="30.731" r="6.769"/><rect width="53.923" height="13.538" x="21.5" y=".5" rx="6.769"/><rect width="53.923" height="13.538" x=".5" y="23.962" rx="6.769"/></g></g></svg>